<?xml version="1.0" encoding="iso-8859-1"?>
<!-- Generator: Adobe Illustrator 19.0.0, SVG Export Plug-In . SVG Version: 6.00 Build 0)  -->
<svg version="1.1" id="Layer_1" xmlns="http://www.w3.org/2000/svg" xmlns:xlink="http://www.w3.org/1999/xlink" x="0px" y="0px"
	 viewBox="0 0 496.2 496.2" style="enable-background:new 0 0 496.2 496.2;" xml:space="preserve">
<path style="fill:#FABC3D;" d="M496.2,248.1C496.2,111.1,385.1,0,248.1,0S0,111.1,0,248.1s111.1,248.1,248.1,248.1
	S496.2,385.1,496.2,248.1z"/>
<path style="fill:#292929;" d="M341.2,318.5c0,0,11.6-10.7,10.8-49.5c0,0,0.3-26.6,5.3-29.1c6.6-3.2,17.1,0.6,14.1,9.3
	c-0.6,1.6-4.6,3.8-6.8-0.8c0,0-3-3-3,2.3c0,0,7,59.3-2.9,78.4L341.2,318.5z"/>
<polygon style="fill:#663D26;" points="405.7,391.7 386.2,370.5 283,344.3 179.7,370.5 160.2,391.7 282.9,436.3 283,436.2 
	283,436.3 "/>
<polygon style="fill:#824831;" points="283,344.3 179.7,370.5 283,408.1 386.2,370.5 "/>
<polygon style="fill:#512E1D;" points="405.7,391.7 283,436.3 283,408.1 386.2,370.5 "/>
<polygon style="fill:#6B3B28;" points="160.2,391.7 282.9,436.3 282.9,408.1 179.7,370.5 "/>
<polygon style="fill:#663D26;" points="386.1,370.4 385.9,332.9 283,295.4 180,332.9 179.8,370.4 282.9,407.9 283,407.8 283,407.9 
	"/>
<polygon style="fill:#824831;" points="283,295.4 180,332.9 283,370.4 385.9,332.9 "/>
<polygon style="fill:#663D26;" points="386.1,370.4 283,407.9 283,370.4 385.9,332.9 "/>
<polygon style="fill:#77442B;" points="179.8,370.4 282.9,407.9 282.9,370.4 180,332.9 "/>
<ellipse style="fill:#2D1912;" cx="337.1" cy="361.5" rx="5.1" ry="5.8"/>
<path style="fill:#D4D4D4;" d="M367.3,397.6c0,0-10.1-3.5-10.8-3.8c-1.3-0.5-2.2-1.8-2.3-3.3c-0.1-1.1,0-21,0-22.2
	c0-1.3-0.6-3.4-2.3-4.2c-2.1-0.9-14.8-5.2-14.8-5.2c-1.1-0.4-2.3,0.2-2.7,1.3c-0.4,1.1,0.2,2.3,1.3,2.7c0,0,10.1,3.5,10.8,3.8
	c1.3,0.5,2.2,1.8,2.3,3.3c0.1,1.1,0,21,0,22.2c0,1.3,0.6,3.4,2.3,4.2c2.1,0.9,14.8,5.2,14.8,5.2c1.1,0.4,2.3-0.2,2.7-1.3
	C369,399.2,368.4,398,367.3,397.6z"/>
<path style="fill:#161616;" d="M368.3,395.9c0,0-8-3-9.1-3.4c-2-0.8-3.4-2.7-3.6-5.1l-8.2,0.8c-0.3,1,0,1.7,0,2c0,2,0.9,5.2,3.5,6.4
	c3.3,1.4,15.2,5.6,15.2,5.6c1.7,0.6,3.6-0.3,4.2-2C370.9,398.4,370,396.5,368.3,395.9z"/>
<ellipse style="fill:#133829;" cx="282.4" cy="331.8" rx="59.7" ry="24.3"/>
<ellipse style="fill:#1F6048;" cx="282.4" cy="326.7" rx="59.7" ry="24.3"/>
<ellipse style="fill:#0F3023;" cx="282.4" cy="326.7" rx="2.8" ry="1.8"/>
<path style="fill:#A5906F;" d="M337.1,226.5l-69.5-32c-36.5-16.2-63.4-77.1-63.4-77.1L163.6,263c82.2-54.3,176.3-13.9,176.3-13.9
	s2.3,2.8,1.3,18.4s-11.4,16.4-11.4,16.4l-33.6,7.5l4.9,6.2l28.9-5.7c7.2-1.3,12-5.3,12-5.3c11.5-10.4,10.7-32,10.7-32
	C352.7,233.2,337.1,226.5,337.1,226.5z"/>
<path style="fill:#927E59;" d="M142.6,79.9c0,0-16,0.8-27.4,50.2c0,0-18.5,21.3-18.5,61.9c0,0-14.7,44.1-4.6,63.4
	c0,0-8.1,39.1,10.7,40.6c0,0,6.6,29.9,29.4,0.5c0,0,24.9,0,38.6-53.8c0,0,25.4-37.5,26.9-88.3c0,0,16.7-54.8,0-75.1
	c0,0,1.5-43.1-22.8-27.4C174.8,52,157.5,37.8,142.6,79.9z"/>
<path style="fill:#726044;" d="M143.4,99.8c0,0-12.8,0.6-21.9,40.2c0,0-14.8,17-14.8,49.5c0,0-11.8,35.3-3.7,50.7
	c0,0-6.5,31.2,8.5,32.5c0,0,5.3,23.9,23.5,0.4c0,0,19.9,0,30.8-43c0,0,20.3-30,21.5-70.6c0,0,13.4-43.8,0-60c0,0,1.2-34.5-18.3-21.9
	C169.2,77.5,155.4,66.1,143.4,99.8z"/>
<polygon style="fill:#292929;" points="285.8,311.9 289.4,323.4 292.9,311.4 "/>
<g>
	
		<ellipse transform="matrix(-0.2554 0.9668 -0.9668 -0.2554 649.2072 99.8083)" style="fill:#8E795E;" cx="286.171" cy="299.893" rx="12.7" ry="12"/>
	
		<rect x="286.086" y="287.483" transform="matrix(-0.9668 -0.2554 0.2554 -0.9668 489.0504 663.9728)" style="fill:#8E795E;" width="3.1" height="25.499"/>
</g>
<ellipse transform="matrix(-0.2553 0.9669 -0.9669 -0.2553 653.8242 97.6829)" style="fill:#A5906F;" cx="289.293" cy="300.639" rx="12.7" ry="12"/>
<path style="fill:#292929;" d="M353.5,268.2H341c0,0-2.1-2.7-2.3-6.2c-0.3-3.6,2.3-5.6,2.3-5.6h12.5V268.2z"/>
<g>
</g>
<g>
</g>
<g>
</g>
<g>
</g>
<g>
</g>
<g>
</g>
<g>
</g>
<g>
</g>
<g>
</g>
<g>
</g>
<g>
</g>
<g>
</g>
<g>
</g>
<g>
</g>
<g>
</g>
</svg>
